<svg width="278" height="36" viewBox="0 0 278 36" fill="none" xmlns="http://www.w3.org/2000/svg">
<rect width="36" height="36" rx="18" fill="#F2F4F7"/>
<path d="M13.938 16.4611V19.4611H16.188V24.7111H19.188V19.4611H21.438L22.188 16.4611H19.188V14.9611C19.188 14.7621 19.267 14.5714 19.4077 14.4307C19.5483 14.2901 19.7391 14.2111 19.938 14.2111H22.188V11.2111H19.938C18.9434 11.2111 17.9896 11.6061 17.2863 12.3094C16.5831 13.0127 16.188 13.9665 16.188 14.9611V16.4611H13.938Z" stroke="#282828" stroke-width="1.125" stroke-linecap="round" stroke-linejoin="round"/>
<rect x="52" width="36" height="36" rx="18" fill="#F2F4F7"/>
<path fill-rule="evenodd" clip-rule="evenodd" d="M67.2422 12.5234C65.896 12.5234 64.8047 13.6147 64.8047 14.9609V20.9609C64.8047 22.3071 65.896 23.3984 67.2422 23.3984H73.2422C74.5884 23.3984 75.6797 22.3071 75.6797 20.9609V14.9609C75.6797 13.6147 74.5884 12.5234 73.2422 12.5234H67.2422ZM63.6797 14.9609C63.6797 12.9934 65.2747 11.3984 67.2422 11.3984H73.2422C75.2097 11.3984 76.8047 12.9934 76.8047 14.9609V20.9609C76.8047 22.9285 75.2097 24.5234 73.2422 24.5234H67.2422C65.2747 24.5234 63.6797 22.9285 63.6797 20.9609V14.9609ZM70.2422 16.2734C69.3102 16.2734 68.5547 17.029 68.5547 17.9609C68.5547 18.8929 69.3102 19.6484 70.2422 19.6484C71.1742 19.6484 71.9297 18.8929 71.9297 17.9609C71.9297 17.029 71.1742 16.2734 70.2422 16.2734ZM67.4297 17.9609C67.4297 16.4076 68.6889 15.1484 70.2422 15.1484C71.7955 15.1484 73.0547 16.4076 73.0547 17.9609C73.0547 19.5142 71.7955 20.7734 70.2422 20.7734C68.6889 20.7734 67.4297 19.5142 67.4297 17.9609ZM74.1797 14.5859C74.1797 14.2753 73.9278 14.0234 73.6172 14.0234C73.3065 14.0234 73.0547 14.2753 73.0547 14.5859V14.5869C73.0547 14.8976 73.3065 15.1494 73.6172 15.1494C73.9278 15.1494 74.1797 14.8976 74.1797 14.5869V14.5859Z" fill="#282828"/>
<rect x="104" width="36" height="36" rx="18" fill="#F2F4F7"/>
<path d="M129.228 11.9295C128.478 12.297 127.743 12.4463 126.978 12.672C126.137 11.7233 124.89 11.6708 123.693 12.1193C122.495 12.5678 121.71 13.6643 121.728 14.922V15.672C119.294 15.7343 117.126 14.6258 115.728 12.672C115.728 12.672 112.591 18.2468 118.728 20.922C117.324 21.8573 115.923 22.488 114.228 22.422C116.709 23.7743 119.412 24.2393 121.753 23.5598C124.438 22.7798 126.645 20.7675 127.491 17.7533C127.744 16.8365 127.869 15.8894 127.864 14.9385C127.863 14.7518 128.997 12.8595 129.228 11.9288V11.9295Z" stroke="#282828" stroke-width="1.125" stroke-linecap="round" stroke-linejoin="round"/>
</svg>
